<?xml version="1.0" standalone="no"?>
<!DOCTYPE svg PUBLIC "-//W3C//DTD SVG 20010904//EN"
 "http://www.w3.org/TR/2001/REC-SVG-20010904/DTD/svg10.dtd">
<svg version="1.0" xmlns="http://www.w3.org/2000/svg"
 width="240.000000pt" height="240.000000pt" viewBox="0 0 240.000000 240.000000"
 preserveAspectRatio="xMidYMid meet">
<metadata>
Created by potrace 1.11, written by Peter Selinger 2001-2013
</metadata>
<g transform="translate(0.000000,240.000000) scale(0.100000,-0.100000)"
fill="#000000" stroke="none">
<path d="M678 2369 c-32 -18 -135 -251 -204 -459 -37 -113 -69 -207 -70 -209
-6 -7 -106 42 -134 65 -28 23 -154 69 -212 77 -45 7 -62 -10 -55 -55 13 -85
101 -392 133 -466 8 -18 14 -44 14 -57 0 -13 4 -26 9 -29 17 -11 21 -72 6
-118 -11 -37 -12 -62 -4 -109 12 -73 16 -83 69 -146 22 -26 44 -52 49 -58 4
-5 22 -21 39 -36 27 -22 92 -132 92 -157 0 -7 52 -53 82 -73 5 -3 10 -66 10
-140 0 -98 5 -143 16 -168 13 -28 13 -38 2 -70 -7 -20 -17 -49 -21 -66 -4 -16
-12 -45 -17 -62 l-11 -33 217 0 216 0 -26 27 c-13 16 -35 43 -48 61 -12 19
-34 46 -47 60 -22 24 -47 71 -43 80 1 2 -11 17 -26 33 -24 26 -27 32 -16 49 7
12 8 20 2 20 -5 0 -10 -5 -10 -11 0 -19 -18 0 -24 27 -4 15 -13 33 -21 40 -7
8 -11 22 -8 33 6 22 -9 34 -32 25 -17 -7 -17 -27 0 -67 6 -14 4 -16 -11 -11
-48 17 -85 82 -62 111 5 7 5 14 -1 17 -10 6 4 74 18 89 13 13 141 -56 141 -75
0 -10 7 -18 15 -18 8 0 15 -7 15 -15 0 -8 5 -15 10 -15 18 0 10 -29 -12 -44
-19 -13 -20 -16 -5 -16 10 0 20 7 23 15 9 22 32 18 39 -6 4 -12 14 -29 23 -38
18 -18 57 -64 81 -94 12 -15 12 -19 -3 -30 -15 -11 -14 -15 13 -47 16 -19 33
-31 37 -27 5 4 -5 19 -21 32 -25 19 -28 26 -17 37 11 11 14 10 22 -1 23 -39
151 -158 195 -183 l50 -29 -40 6 c-34 5 -36 4 -16 -5 36 -16 109 -1 163 32 27
16 48 33 48 38 0 5 14 22 31 39 17 17 25 31 18 31 -15 0 -79 -42 -79 -52 0
-10 -72 -53 -90 -53 -32 -1 -120 53 -120 74 0 6 -7 11 -15 11 -8 0 -15 5 -15
10 0 6 -7 10 -15 10 -14 0 -19 11 -16 37 1 8 -5 10 -14 7 -13 -5 -15 -2 -10
18 5 20 0 30 -32 53 -28 21 -33 23 -19 7 11 -12 16 -25 12 -30 -4 -4 -14 2
-22 13 -8 11 -21 27 -28 37 -8 9 -12 19 -9 22 3 3 -1 8 -10 12 -9 3 -13 12
-11 19 3 8 12 11 20 8 8 -3 14 -1 14 5 0 16 -28 22 -34 6 -9 -23 -28 -16 -22
9 3 12 3 16 0 9 -8 -17 -24 -5 -24 19 0 10 -7 19 -15 19 -8 0 -19 9 -25 20
-16 30 -2 24 80 -35 87 -62 218 -130 273 -140 20 -4 37 -11 37 -15 0 -14 -67
-21 -95 -10 -54 21 -76 -9 -25 -35 62 -32 179 -15 288 42 36 18 67 31 70 29 2
-3 -14 -22 -37 -42 -22 -21 -41 -41 -41 -46 0 -19 47 -6 64 17 11 14 26 23 33
21 8 -3 11 -2 8 4 -3 5 7 22 22 38 47 49 84 94 116 142 17 25 37 51 43 58 7 7
23 30 35 52 13 22 26 40 31 40 4 0 36 13 70 30 34 16 62 30 64 30 1 0 5 -10 9
-22 10 -33 15 -148 5 -148 -4 0 -10 -12 -13 -28 -3 -15 -15 -38 -26 -51 -12
-13 -21 -27 -21 -31 0 -4 -8 -16 -17 -28 -10 -12 -31 -40 -48 -62 -16 -22 -35
-38 -42 -36 -7 3 -10 -1 -6 -10 7 -18 -36 -66 -51 -57 -6 3 -8 3 -4 -2 4 -4
-23 -39 -60 -77 -36 -38 -68 -64 -70 -58 -2 5 -8 7 -13 4 -6 -3 -5 -11 2 -20
9 -11 53 -14 220 -14 204 0 209 1 209 20 0 28 -29 150 -43 178 -8 16 -7 39 2
86 7 36 10 74 6 86 -4 12 0 49 9 83 8 34 17 74 20 88 3 15 17 32 33 40 90 46
148 87 193 136 27 30 50 62 50 72 0 9 6 25 14 36 19 28 33 76 98 329 5 22 12
51 14 65 2 14 13 62 25 106 31 119 72 354 84 482 8 85 -6 143 -36 143 -38 0
-283 -154 -333 -209 -28 -31 -84 -64 -96 -56 -5 3 -10 18 -10 32 0 15 -6 34
-14 42 -7 9 -19 45 -26 81 -14 72 -75 294 -89 325 -5 11 -19 49 -32 84 -13 35
-36 77 -51 93 -26 28 -28 28 -55 14 -37 -19 -91 -99 -143 -211 -78 -168 -71
-157 -94 -149 -25 10 -413 9 -471 -1 -37 -6 -41 -5 -51 22 -62 161 -81 205
-106 251 -31 55 -75 112 -86 112 -4 0 -15 -5 -24 -11z m1682 -458 c0 -5 2 -15
5 -23 3 -7 -10 -31 -30 -52 -34 -37 -43 -56 -27 -56 4 0 13 14 20 30 14 32 32
40 32 15 0 -8 -3 -15 -7 -15 -5 0 -8 -24 -9 -52 -1 -53 -5 -78 -24 -173 -5
-27 -12 -64 -14 -80 -2 -17 -9 -56 -16 -88 -9 -46 -15 -57 -27 -53 -13 5 -13
4 -4 -7 11 -14 5 -102 -9 -122 -3 -5 -17 -55 -29 -110 -13 -55 -30 -120 -38
-145 -8 -25 -17 -57 -20 -72 -6 -32 -19 -37 -26 -10 -3 9 -3 -3 0 -28 5 -56
-26 -114 -80 -149 -20 -13 -37 -31 -37 -39 0 -12 -3 -12 -15 -2 -9 7 -19 10
-22 6 -4 -4 -1 -11 7 -16 8 -6 12 -10 8 -10 -3 0 -13 -3 -22 -6 -10 -4 -16 -1
-16 8 0 8 -11 20 -25 26 -32 15 -32 25 3 48 43 28 139 130 160 171 25 49 20
220 -9 275 -16 30 -10 47 41 134 28 47 50 91 50 99 0 7 5 17 10 20 6 3 10 16
10 28 0 18 2 19 11 7 8 -11 9 -7 5 18 -3 17 -1 32 4 32 4 0 11 26 15 58 4 31
10 69 15 83 7 22 4 29 -15 39 -18 10 -27 9 -46 -1 -13 -7 -27 -13 -30 -12 -3
1 -4 -9 -1 -23 2 -14 7 -22 11 -17 3 4 14 9 24 11 16 3 17 -2 11 -35 -4 -21
-15 -64 -25 -97 -11 -32 -19 -64 -19 -71 0 -20 -27 -38 -34 -23 -3 7 -4 4 -1
-8 9 -35 -59 -166 -69 -134 -2 8 -14 47 -26 85 -12 39 -26 84 -32 100 -5 17
-19 61 -31 99 l-21 69 27 23 c15 13 33 22 40 20 6 -1 9 -1 5 1 -15 9 -8 25 8
19 8 -3 12 -2 9 4 -3 6 1 10 9 10 9 0 16 3 16 8 0 4 14 13 31 21 16 7 28 16
25 18 -7 8 113 100 154 118 19 9 42 20 50 25 20 12 40 12 40 1z m-2310 -91 c0
-5 -4 -10 -10 -10 -5 0 -10 5 -10 10 0 6 5 10 10 10 6 0 10 -4 10 -10z m40
-22 c0 -5 5 -6 11 -3 14 9 61 -3 54 -14 -3 -5 5 -7 17 -3 17 4 20 2 15 -11 -4
-10 -2 -14 6 -11 16 6 117 -43 117 -57 0 -6 5 -9 12 -7 7 3 22 -5 35 -16 28
-24 31 -48 6 -39 -16 6 -16 5 -5 -10 11 -13 11 -29 -2 -93 -9 -42 -16 -78 -16
-81 0 -2 -7 -3 -16 -1 -18 3 -46 92 -38 119 2 9 -2 19 -11 23 -9 3 -13 2 -10
-3 3 -5 1 -12 -5 -16 -5 -3 -10 -19 -10 -34 0 -28 27 -118 40 -136 5 -5 13
-27 18 -48 11 -38 10 -39 -45 -93 -51 -49 -57 -52 -69 -36 -7 9 -16 35 -20 57
-3 21 -10 46 -14 55 -5 8 -18 47 -30 85 -12 39 -26 75 -30 80 -4 6 -11 30 -15
55 -4 25 -11 50 -15 55 -4 6 -7 25 -5 43 1 17 -1 32 -4 32 -4 0 -13 20 -20 45
-12 41 -12 48 4 65 16 18 45 17 45 -2z m832 -128 c135 -140 152 -424 31 -530
-45 -40 -75 -51 -138 -53 -42 -1 -59 5 -97 31 -49 34 -111 100 -133 142 -21
42 -28 118 -14 173 27 119 134 277 186 277 19 0 20 -6 20 -192 0 -207 19 -338
49 -338 12 0 14 43 14 270 0 310 -1 306 82 220z m590 -222 c1 -141 6 -260 11
-264 4 -4 13 -2 20 5 8 8 13 82 15 260 3 137 8 254 12 261 13 21 66 -6 104
-54 78 -97 121 -216 114 -320 -6 -85 -31 -147 -82 -199 -126 -128 -285 -92
-361 83 -16 36 -20 67 -20 165 0 106 3 125 23 164 49 91 135 182 154 163 3 -4
8 -123 10 -264z m-1074 -785 c7 -7 11 -17 7 -22 -3 -5 0 -13 6 -17 8 -4 9 -3
5 4 -4 7 -1 12 9 12 10 0 13 -5 9 -12 -4 -7 -3 -8 5 -4 20 13 42 -13 30 -35
-11 -22 -31 -16 -23 6 4 9 0 12 -14 8 -15 -3 -27 7 -52 49 -31 49 -26 52 18
11z m1496 11 c14 -15 26 -30 26 -34 0 -5 -76 -50 -85 -50 -2 0 -9 17 -14 37
-9 30 -7 40 6 55 22 24 36 23 67 -8z m-1354 -344 c3 -3 22 -14 43 -25 20 -11
40 -28 43 -37 3 -10 10 -18 16 -18 6 0 8 -3 5 -6 -4 -4 3 -20 15 -37 15 -21
17 -29 7 -25 -8 3 -40 11 -71 17 -37 8 -67 22 -85 39 -26 24 -28 32 -25 80 l4
53 22 -18 c11 -10 23 -20 26 -23z m1236 -9 c-1 -27 -3 -51 -6 -54 -36 -29 -79
-57 -89 -57 -8 0 82 151 95 159 0 1 0 -21 0 -48z m-836 -69 c0 -13 -12 -22
-22 -16 -10 6 -1 24 13 24 5 0 9 -4 9 -8z"/>
<path d="M2292 1878 c2 -6 10 -14 16 -16 7 -2 10 2 6 12 -7 18 -28 22 -22 4z"/>
<path d="M2225 1850 c-3 -5 -3 -10 2 -10 4 0 1 -4 -7 -10 -8 -5 -12 -11 -9
-15 3 -3 14 3 23 14 10 11 13 21 7 25 -5 4 -12 2 -16 -4z"/>
<path d="M2210 1789 c-12 -8 -11 -9 6 -7 11 2 28 -3 37 -11 11 -8 17 -9 17 -3
0 6 -9 16 -19 22 -24 12 -22 12 -41 -1z"/>
<path d="M2150 1781 c0 -10 19 -25 25 -20 1 2 -3 10 -11 17 -8 7 -14 8 -14 3z"/>
<path d="M2181 1624 c0 -11 3 -14 6 -6 3 7 2 16 -1 19 -3 4 -6 -2 -5 -13z"/>
<path d="M2290 1590 c0 -5 5 -10 11 -10 5 0 7 5 4 10 -3 6 -8 10 -11 10 -2 0
-4 -4 -4 -10z"/>
<path d="M2090 1406 c0 -9 5 -16 10 -16 6 0 10 4 10 9 0 6 -4 13 -10 16 -5 3
-10 -1 -10 -9z"/>
<path d="M2225 1281 c-3 -5 -1 -12 4 -15 5 -3 11 1 15 9 6 16 -9 21 -19 6z"/>
<path d="M2127 1216 c-4 -10 -1 -13 9 -9 15 6 19 23 5 23 -5 0 -11 -7 -14 -14z"/>
<path d="M2161 1184 c0 -11 3 -14 6 -6 3 7 2 16 -1 19 -3 4 -6 -2 -5 -13z"/>
<path d="M2150 1146 c0 -9 5 -16 10 -16 6 0 10 4 10 9 0 6 -4 13 -10 16 -5 3
-10 -1 -10 -9z"/>
<path d="M2060 780 c0 -5 5 -10 11 -10 5 0 7 5 4 10 -3 6 -8 10 -11 10 -2 0
-4 -4 -4 -10z"/>
<path d="M1960 720 c0 -5 10 -10 23 -10 18 0 19 2 7 10 -19 13 -30 13 -30 0z"/>
<path d="M50 1771 c0 -6 5 -13 10 -16 6 -3 10 1 10 9 0 9 -4 16 -10 16 -5 0
-10 -4 -10 -9z"/>
<path d="M110 1770 c8 -5 20 -10 25 -10 6 0 3 5 -5 10 -8 5 -19 10 -25 10 -5
0 -3 -5 5 -10z"/>
<path d="M337 1593 c4 -11 3 -14 -6 -9 -9 6 -10 0 -5 -21 9 -38 14 -42 14 -10
0 14 5 27 12 29 6 2 8 10 4 16 -11 18 -26 14 -19 -5z"/>
<path d="M302 1540 c0 -14 2 -19 5 -12 2 6 2 18 0 25 -3 6 -5 1 -5 -13z"/>
<path d="M111 1534 c0 -11 3 -14 6 -6 3 7 2 16 -1 19 -3 4 -6 -2 -5 -13z"/>
<path d="M251 1384 c0 -11 3 -14 6 -6 3 7 2 16 -1 19 -3 4 -6 -2 -5 -13z"/>
<path d="M216 1345 c-3 -8 -1 -15 4 -15 6 0 10 7 10 15 0 8 -2 15 -4 15 -2 0
-6 -7 -10 -15z"/>
<path d="M226 1304 c-8 -21 -4 -25 14 -14 11 7 12 12 4 20 -8 8 -13 7 -18 -6z"/>
<path d="M1880 659 c0 -5 5 -7 10 -4 6 3 10 8 10 11 0 2 -4 4 -10 4 -5 0 -10
-5 -10 -11z"/>
<path d="M1910 640 c0 -5 5 -10 10 -10 6 0 10 5 10 10 0 6 -4 10 -10 10 -5 0
-10 -4 -10 -10z"/>
<path d="M1875 630 c3 -5 8 -10 11 -10 2 0 4 5 4 10 0 6 -5 10 -11 10 -5 0 -7
-4 -4 -10z"/>
<path d="M610 276 c0 -2 7 -6 15 -10 8 -3 15 -1 15 4 0 6 -7 10 -15 10 -8 0
-15 -2 -15 -4z"/>
<path d="M590 239 c0 -5 5 -7 10 -4 6 3 10 8 10 11 0 2 -4 4 -10 4 -5 0 -10
-5 -10 -11z"/>
<path d="M650 220 c0 -5 5 -10 11 -10 5 0 7 5 4 10 -3 6 -8 10 -11 10 -2 0 -4
-4 -4 -10z"/>
<path d="M1745 580 c-3 -5 -1 -10 4 -10 6 0 11 5 11 10 0 6 -2 10 -4 10 -3 0
-8 -4 -11 -10z"/>
<path d="M540 520 c0 -5 5 -10 11 -10 5 0 7 5 4 10 -3 6 -8 10 -11 10 -2 0 -4
-4 -4 -10z"/>
<path d="M1655 510 c-3 -5 -1 -10 4 -10 6 0 11 5 11 10 0 6 -2 10 -4 10 -3 0
-8 -4 -11 -10z"/>
<path d="M1716 475 c4 -8 10 -12 15 -9 11 6 2 24 -11 24 -5 0 -7 -7 -4 -15z"/>
<path d="M1777 483 c-13 -3 -16 -11 -11 -31 9 -37 14 -40 14 -11 0 14 5 30 12
37 7 7 10 11 8 11 -3 -1 -13 -3 -23 -6z"/>
<path d="M1670 471 c0 -6 5 -13 10 -16 6 -3 10 1 10 9 0 9 -4 16 -10 16 -5 0
-10 -4 -10 -9z"/>
<path d="M590 459 c0 -5 5 -7 10 -4 6 3 10 8 10 11 0 2 -4 4 -10 4 -5 0 -10
-5 -10 -11z"/>
<path d="M1610 438 c-12 -22 -12 -22 6 -6 10 10 15 20 12 24 -4 3 -12 -5 -18
-18z"/>
<path d="M653 410 c1 -11 5 -20 9 -20 11 0 10 28 -1 35 -6 3 -9 -4 -8 -15z"/>
<path d="M1620 390 c0 -5 5 -10 10 -10 6 0 10 5 10 10 0 6 -4 10 -10 10 -5 0
-10 -4 -10 -10z"/>
<path d="M710 361 c0 -5 5 -13 10 -16 6 -3 10 -2 10 4 0 5 -4 13 -10 16 -5 3
-10 2 -10 -4z"/>
<path d="M1725 360 c-3 -5 -1 -10 4 -10 6 0 11 5 11 10 0 6 -2 10 -4 10 -3 0
-8 -4 -11 -10z"/>
<path d="M760 335 c0 -8 5 -15 10 -15 6 0 10 7 10 15 0 8 -4 15 -10 15 -5 0
-10 -7 -10 -15z"/>
<path d="M1515 331 c-6 -11 9 -23 19 -14 9 9 7 23 -3 23 -6 0 -12 -4 -16 -9z"/>
<path d="M1686 322 c-2 -4 4 -8 14 -8 10 0 16 4 14 8 -3 4 -9 8 -14 8 -5 0
-11 -4 -14 -8z"/>
<path d="M802 300 c7 -10 14 -18 15 -16 6 6 -9 36 -18 36 -5 0 -4 -9 3 -20z"/>
<path d="M1010 289 c0 -5 5 -7 10 -4 6 3 10 8 10 11 0 2 -4 4 -10 4 -5 0 -10
-5 -10 -11z"/>
<path d="M1480 275 c0 -8 2 -15 4 -15 2 0 6 7 10 15 3 8 1 15 -4 15 -6 0 -10
-7 -10 -15z"/>
<path d="M1561 234 c0 -11 3 -14 6 -6 3 7 2 16 -1 19 -3 4 -6 -2 -5 -13z"/>
<path d="M1605 230 c-3 -5 -1 -10 4 -10 6 0 11 5 11 10 0 6 -2 10 -4 10 -3 0
-8 -4 -11 -10z"/>
<path d="M1040 201 c0 -5 7 -12 16 -15 24 -9 27 -7 10 9 -17 17 -26 19 -26 6z"/>
<path d="M840 196 c0 -4 7 -14 15 -22 8 -9 15 -11 15 -6 0 5 -7 15 -15 22 -8
7 -15 9 -15 6z"/>
<path d="M1128 183 c6 -2 18 -2 25 0 6 3 1 5 -13 5 -14 0 -19 -2 -12 -5z"/>
<path d="M810 155 c0 -8 2 -15 4 -15 2 0 6 7 10 15 3 8 1 15 -4 15 -6 0 -10
-7 -10 -15z"/>
<path d="M950 163 c0 -5 7 -19 16 -31 16 -23 34 -29 34 -12 0 6 -7 10 -15 10
-8 0 -15 6 -15 14 0 8 -4 18 -10 21 -5 3 -10 2 -10 -2z"/>
<path d="M880 129 c0 -11 -4 -17 -10 -14 -5 3 -10 1 -10 -4 0 -18 19 -12 30 8
13 25 13 31 0 31 -5 0 -10 -9 -10 -21z"/>
<path d="M1230 120 c0 -5 5 -10 11 -10 5 0 7 5 4 10 -3 6 -8 10 -11 10 -2 0
-4 -4 -4 -10z"/>
<path d="M1144 105 c-12 -9 -14 -14 -6 -15 7 0 20 7 28 15 20 19 4 20 -22 0z"/>
<path d="M1186 94 c-11 -7 -18 -16 -15 -18 2 -2 13 2 23 10 11 7 18 16 15 18
-2 2 -13 -2 -23 -10z"/>
<path d="M896 74 c-9 -22 3 -32 14 -14 12 19 12 30 1 30 -5 0 -12 -7 -15 -16z"/>
<path d="M1494 74 c-18 -14 -18 -15 4 -4 12 6 22 13 22 15 0 8 -5 6 -26 -11z"/>
<path d="M942 59 c-19 -30 -8 -34 12 -4 9 14 13 25 9 25 -5 0 -14 -9 -21 -21z"/>
<path d="M1040 44 c0 -8 5 -12 10 -9 6 3 10 10 10 16 0 5 -4 9 -10 9 -5 0 -10
-7 -10 -16z"/>
<path d="M955 10 c-3 -5 -1 -10 4 -10 6 0 11 5 11 10 0 6 -2 10 -4 10 -3 0 -8
-4 -11 -10z"/>
<path d="M1088 3 c7 -3 16 -2 19 1 4 3 -2 6 -13 5 -11 0 -14 -3 -6 -6z"/>
<path d="M1178 3 c7 -3 16 -2 19 1 4 3 -2 6 -13 5 -11 0 -14 -3 -6 -6z"/>
</g>
</svg>
